<mxfile host="app.diagrams.net" agent="Mozilla/5.0 (Windows NT 10.0; Win64; x64) AppleWebKit/537.36 (KHTML, like Gecko) Chrome/131.0.0.0 Safari/537.36 OPR/116.0.0.0" version="26.0.14">
  <diagram name="PÃ¡gina-1" id="YE0Q7Si3fETUAlt0uuAF">
    <mxGraphModel dx="1243" dy="622" grid="1" gridSize="10" guides="1" tooltips="1" connect="1" arrows="1" fold="1" page="1" pageScale="1" pageWidth="827" pageHeight="1169" math="0" shadow="0">
      <root>
        <mxCell id="0" />
        <mxCell id="1" parent="0" />
        <mxCell id="W6dlV7Ku1eB_zl5zrXaN-6" style="edgeStyle=orthogonalEdgeStyle;rounded=0;orthogonalLoop=1;jettySize=auto;html=1;exitX=0.5;exitY=1;exitDx=0;exitDy=0;exitPerimeter=0;entryX=0.5;entryY=0;entryDx=0;entryDy=0;" edge="1" parent="1" source="W6dlV7Ku1eB_zl5zrXaN-3" target="W6dlV7Ku1eB_zl5zrXaN-5">
          <mxGeometry relative="1" as="geometry" />
        </mxCell>
        <mxCell id="W6dlV7Ku1eB_zl5zrXaN-3" value="Inicio" style="strokeWidth=2;html=1;shape=mxgraph.flowchart.start_1;whiteSpace=wrap;" vertex="1" parent="1">
          <mxGeometry x="350" y="10" width="100" height="60" as="geometry" />
        </mxCell>
        <mxCell id="W6dlV7Ku1eB_zl5zrXaN-4" value="Fim" style="strokeWidth=2;html=1;shape=mxgraph.flowchart.start_1;whiteSpace=wrap;" vertex="1" parent="1">
          <mxGeometry x="350" y="860" width="100" height="60" as="geometry" />
        </mxCell>
        <mxCell id="W6dlV7Ku1eB_zl5zrXaN-5" value="WRK-PAG = 1" style="rounded=1;whiteSpace=wrap;html=1;absoluteArcSize=1;arcSize=14;strokeWidth=2;" vertex="1" parent="1">
          <mxGeometry x="350" y="110" width="100" height="40" as="geometry" />
        </mxCell>
        <mxCell id="W6dlV7Ku1eB_zl5zrXaN-7" value="WRK-SALDO" style="html=1;strokeWidth=2;shape=manualInput;whiteSpace=wrap;rounded=1;size=26;arcSize=11;" vertex="1" parent="1">
          <mxGeometry x="350" y="180" width="100" height="60" as="geometry" />
        </mxCell>
        <mxCell id="W6dlV7Ku1eB_zl5zrXaN-8" style="edgeStyle=orthogonalEdgeStyle;rounded=0;orthogonalLoop=1;jettySize=auto;html=1;exitX=0.5;exitY=1;exitDx=0;exitDy=0;entryX=0.5;entryY=0.167;entryDx=0;entryDy=0;entryPerimeter=0;" edge="1" parent="1" source="W6dlV7Ku1eB_zl5zrXaN-5" target="W6dlV7Ku1eB_zl5zrXaN-7">
          <mxGeometry relative="1" as="geometry" />
        </mxCell>
        <mxCell id="W6dlV7Ku1eB_zl5zrXaN-19" style="edgeStyle=orthogonalEdgeStyle;rounded=0;orthogonalLoop=1;jettySize=auto;html=1;exitX=0;exitY=0.5;exitDx=0;exitDy=0;exitPerimeter=0;entryX=0;entryY=0.5;entryDx=0;entryDy=0;" edge="1" parent="1" source="W6dlV7Ku1eB_zl5zrXaN-9" target="W6dlV7Ku1eB_zl5zrXaN-17">
          <mxGeometry relative="1" as="geometry">
            <Array as="points">
              <mxPoint x="310" y="300" />
              <mxPoint x="310" y="530" />
            </Array>
          </mxGeometry>
        </mxCell>
        <mxCell id="W6dlV7Ku1eB_zl5zrXaN-9" value="WRK-PAG == 0" style="strokeWidth=2;html=1;shape=mxgraph.flowchart.decision;whiteSpace=wrap;" vertex="1" parent="1">
          <mxGeometry x="345" y="270" width="110" height="60" as="geometry" />
        </mxCell>
        <mxCell id="W6dlV7Ku1eB_zl5zrXaN-10" style="edgeStyle=orthogonalEdgeStyle;rounded=0;orthogonalLoop=1;jettySize=auto;html=1;exitX=0.5;exitY=1;exitDx=0;exitDy=0;entryX=0.5;entryY=0;entryDx=0;entryDy=0;entryPerimeter=0;" edge="1" parent="1" source="W6dlV7Ku1eB_zl5zrXaN-7" target="W6dlV7Ku1eB_zl5zrXaN-9">
          <mxGeometry relative="1" as="geometry" />
        </mxCell>
        <mxCell id="W6dlV7Ku1eB_zl5zrXaN-16" style="edgeStyle=orthogonalEdgeStyle;rounded=0;orthogonalLoop=1;jettySize=auto;html=1;exitX=0.5;exitY=1;exitDx=0;exitDy=0;entryX=0.5;entryY=0;entryDx=0;entryDy=0;" edge="1" parent="1" source="W6dlV7Ku1eB_zl5zrXaN-12" target="W6dlV7Ku1eB_zl5zrXaN-15">
          <mxGeometry relative="1" as="geometry" />
        </mxCell>
        <mxCell id="W6dlV7Ku1eB_zl5zrXaN-12" value="WRK-PAG" style="html=1;strokeWidth=2;shape=manualInput;whiteSpace=wrap;rounded=1;size=26;arcSize=11;" vertex="1" parent="1">
          <mxGeometry x="350" y="350" width="100" height="60" as="geometry" />
        </mxCell>
        <mxCell id="W6dlV7Ku1eB_zl5zrXaN-13" style="edgeStyle=orthogonalEdgeStyle;rounded=0;orthogonalLoop=1;jettySize=auto;html=1;exitX=0.5;exitY=1;exitDx=0;exitDy=0;exitPerimeter=0;entryX=0.505;entryY=0.174;entryDx=0;entryDy=0;entryPerimeter=0;" edge="1" parent="1" source="W6dlV7Ku1eB_zl5zrXaN-9" target="W6dlV7Ku1eB_zl5zrXaN-12">
          <mxGeometry relative="1" as="geometry" />
        </mxCell>
        <mxCell id="W6dlV7Ku1eB_zl5zrXaN-15" value="WRK-PAGT = WRK-PAGT + WRK-PAG" style="rounded=1;whiteSpace=wrap;html=1;absoluteArcSize=1;arcSize=14;strokeWidth=2;" vertex="1" parent="1">
          <mxGeometry x="340" y="440" width="120" height="40" as="geometry" />
        </mxCell>
        <mxCell id="W6dlV7Ku1eB_zl5zrXaN-23" style="edgeStyle=orthogonalEdgeStyle;rounded=0;orthogonalLoop=1;jettySize=auto;html=1;exitX=0.5;exitY=1;exitDx=0;exitDy=0;entryX=0.5;entryY=0;entryDx=0;entryDy=0;" edge="1" parent="1" source="W6dlV7Ku1eB_zl5zrXaN-17" target="W6dlV7Ku1eB_zl5zrXaN-22">
          <mxGeometry relative="1" as="geometry" />
        </mxCell>
        <mxCell id="W6dlV7Ku1eB_zl5zrXaN-17" value="WRK-SALDOF = WRK-SALDO - WRK-PAGF" style="rounded=1;whiteSpace=wrap;html=1;absoluteArcSize=1;arcSize=14;strokeWidth=2;" vertex="1" parent="1">
          <mxGeometry x="340" y="510" width="120" height="50" as="geometry" />
        </mxCell>
        <mxCell id="W6dlV7Ku1eB_zl5zrXaN-18" style="edgeStyle=orthogonalEdgeStyle;rounded=0;orthogonalLoop=1;jettySize=auto;html=1;exitX=1;exitY=0.5;exitDx=0;exitDy=0;entryX=1;entryY=0.5;entryDx=0;entryDy=0;entryPerimeter=0;" edge="1" parent="1" source="W6dlV7Ku1eB_zl5zrXaN-15" target="W6dlV7Ku1eB_zl5zrXaN-9">
          <mxGeometry relative="1" as="geometry" />
        </mxCell>
        <mxCell id="W6dlV7Ku1eB_zl5zrXaN-20" value="V" style="text;html=1;align=center;verticalAlign=middle;resizable=0;points=[];autosize=1;strokeColor=none;fillColor=none;" vertex="1" parent="1">
          <mxGeometry x="315" y="268" width="30" height="30" as="geometry" />
        </mxCell>
        <mxCell id="W6dlV7Ku1eB_zl5zrXaN-21" value="F" style="text;html=1;align=center;verticalAlign=middle;resizable=0;points=[];autosize=1;strokeColor=none;fillColor=none;" vertex="1" parent="1">
          <mxGeometry x="395" y="328" width="30" height="30" as="geometry" />
        </mxCell>
        <mxCell id="W6dlV7Ku1eB_zl5zrXaN-25" style="edgeStyle=orthogonalEdgeStyle;rounded=0;orthogonalLoop=1;jettySize=auto;html=1;exitX=0.5;exitY=1;exitDx=0;exitDy=0;entryX=0.5;entryY=0;entryDx=0;entryDy=0;" edge="1" parent="1" source="W6dlV7Ku1eB_zl5zrXaN-22" target="W6dlV7Ku1eB_zl5zrXaN-24">
          <mxGeometry relative="1" as="geometry" />
        </mxCell>
        <mxCell id="W6dlV7Ku1eB_zl5zrXaN-22" value="WRK-SALDOED = WRK-SALDO" style="rounded=1;whiteSpace=wrap;html=1;absoluteArcSize=1;arcSize=14;strokeWidth=2;" vertex="1" parent="1">
          <mxGeometry x="340" y="590" width="120" height="50" as="geometry" />
        </mxCell>
        <mxCell id="W6dlV7Ku1eB_zl5zrXaN-24" value="WRK-PAGTED = WRK-PAGT" style="rounded=1;whiteSpace=wrap;html=1;absoluteArcSize=1;arcSize=14;strokeWidth=2;" vertex="1" parent="1">
          <mxGeometry x="340" y="670" width="120" height="50" as="geometry" />
        </mxCell>
        <mxCell id="W6dlV7Ku1eB_zl5zrXaN-27" value="WRK-SALDOED&lt;div&gt;WRK-PAGTED&lt;/div&gt;&lt;div&gt;WRK-SALDOF&lt;/div&gt;" style="strokeWidth=2;html=1;shape=mxgraph.flowchart.display;whiteSpace=wrap;" vertex="1" parent="1">
          <mxGeometry x="340" y="750" width="120" height="80" as="geometry" />
        </mxCell>
        <mxCell id="W6dlV7Ku1eB_zl5zrXaN-28" style="edgeStyle=orthogonalEdgeStyle;rounded=0;orthogonalLoop=1;jettySize=auto;html=1;exitX=0.5;exitY=1;exitDx=0;exitDy=0;entryX=0.5;entryY=0;entryDx=0;entryDy=0;entryPerimeter=0;" edge="1" parent="1" source="W6dlV7Ku1eB_zl5zrXaN-24" target="W6dlV7Ku1eB_zl5zrXaN-27">
          <mxGeometry relative="1" as="geometry" />
        </mxCell>
        <mxCell id="W6dlV7Ku1eB_zl5zrXaN-29" style="edgeStyle=orthogonalEdgeStyle;rounded=0;orthogonalLoop=1;jettySize=auto;html=1;exitX=0.5;exitY=1;exitDx=0;exitDy=0;exitPerimeter=0;entryX=0.5;entryY=0;entryDx=0;entryDy=0;entryPerimeter=0;" edge="1" parent="1" source="W6dlV7Ku1eB_zl5zrXaN-27" target="W6dlV7Ku1eB_zl5zrXaN-4">
          <mxGeometry relative="1" as="geometry" />
        </mxCell>
      </root>
    </mxGraphModel>
  </diagram>
</mxfile>
